<svg width="40" height="43" viewBox="0 0 40 43" fill="none" xmlns="http://www.w3.org/2000/svg">
<path d="M20.2695 17.3555V25.5705H31.1783C30.6993 28.2125 29.2618 30.4495 27.1059 31.9536L33.6843 37.2954C37.5171 33.593 39.7284 28.1548 39.7284 21.6946C39.7284 20.1905 39.5994 18.744 39.3598 17.3557L20.2695 17.3555Z" fill="#4285F4"/>
<path d="M8.9093 25.25L7.42562 26.4386L2.17383 30.7196C5.50911 37.6425 12.345 42.4251 20.2686 42.4251C25.7413 42.4251 30.3295 40.5352 33.6833 37.2956L27.1049 31.9538C25.2991 33.2265 22.9957 33.998 20.2686 33.998C14.9985 33.998 10.5209 30.2762 8.91758 25.2622L8.9093 25.25Z" fill="#34A853"/>
<path d="M2.17423 11.7051C0.792279 14.559 0 17.7795 0 21.212C0 24.6446 0.792279 27.8651 2.17423 30.719C2.17423 30.7382 8.91864 25.2423 8.91864 25.2423C8.51324 23.9696 8.27362 22.6197 8.27362 21.2118C8.27362 19.8039 8.51324 18.4541 8.91864 17.1813L2.17423 11.7051Z" fill="#FBBC05"/>
<path d="M20.269 8.44645C23.2542 8.44645 25.9077 9.52634 28.0268 11.6091L33.8312 5.53462C30.3116 2.1021 25.7419 0 20.269 0C12.3454 0 5.50911 4.76318 2.17383 11.7055L8.91802 17.1822C10.5211 12.1683 14.9989 8.44645 20.269 8.44645Z" fill="#EA4335"/>
</svg>
